<?xml version="1.0" encoding="UTF-8"?> <svg xmlns="http://www.w3.org/2000/svg" width="241" height="240" viewBox="0 0 241 240" fill="none"> <path d="M165.44 0H75.2132C33.6847 0 0 33.5933 0 75.009V164.991C0 206.407 33.6847 240 75.2132 240H165.44C206.968 240 240.653 206.407 240.653 164.991V75.009C240.605 33.5933 206.92 0 165.44 0ZM177.663 78.0324C177.326 82.8794 174.535 99.868 171.744 118.248L163.034 172.67C163.034 172.67 162.36 180.636 156.441 182.028C150.522 183.419 140.802 177.181 139.07 175.789C137.674 174.733 112.988 159.136 103.941 151.506C101.487 149.442 98.7443 145.267 104.278 140.42C116.79 128.998 131.755 114.745 140.802 105.723C144.989 101.548 149.127 91.8536 131.755 103.659L82.72 136.581C82.72 136.581 77.1379 140.036 66.7438 136.917C56.3016 133.797 44.1269 129.622 44.1269 129.622C44.1269 129.622 35.802 124.439 50.0458 118.872L131.082 85.5669C139.07 82.1116 166.21 71.0258 166.21 71.0258C166.21 71.0258 178.721 66.2267 177.663 78.0324Z" fill="#343434"></path> </svg> 