<?xml version="1.0" encoding="UTF-8"?> <svg xmlns="http://www.w3.org/2000/svg" width="241" height="240" viewBox="0 0 241 240" fill="none"> <path d="M131.033 115.465L163.515 97.4205L127.328 135.957L110.486 117.912L77.5711 135.957L113.758 97.4205L131.033 115.465ZM240.653 75.009V164.991C240.653 206.407 206.968 240 165.44 240H75.2131C33.6847 240 0 206.407 0 164.991V75.009C0.048121 33.5933 33.7329 0 75.2613 0H165.488C206.968 0 240.653 33.5933 240.653 75.009ZM186.95 114.649C186.95 80.6719 157.308 53.1254 120.736 53.1254C84.1637 53.1254 54.5211 80.6719 54.5211 114.649C54.5211 133.989 64.1453 151.266 79.2072 162.544V186.011L101.728 173.581C107.743 175.261 114.095 176.173 120.736 176.173C157.308 176.173 186.95 148.626 186.95 114.649Z" fill="#343434"></path> </svg> 