<?xml version="1.0" encoding="UTF-8"?> <svg xmlns="http://www.w3.org/2000/svg" viewBox="0 0 391.95 77.03"> <defs> <style>.cls-1{fill:#1e1e1e;}.cls-2{fill:#c7dd00;}</style> </defs> <title>Ресурс 20</title> <g id="Слой_2" data-name="Слой 2"> <g id="Слой_1-2" data-name="Слой 1"> <path class="cls-1" d="M64.86,23.92l4.85-4.86A34.05,34.05,0,0,0,48.54,5.38l5.72,9A27.6,27.6,0,0,1,64.86,23.92Z"></path> <path class="cls-1" d="M64.27,54.48c1,1.94,2.28,4.19,3.5,6.45A34,34,0,1,1,35.47,5.38l-5.71,9A27.26,27.26,0,1,0,64.27,54.48Z"></path> <path class="cls-2" d="M17.09,65.51A41.66,41.66,0,0,0,22.81,70,48.19,48.19,0,0,1,3.75,77,3.38,3.38,0,0,1,.27,72.33c2.16-5.09,5.24-11.22,8.79-17.77A31.58,31.58,0,0,0,13.25,61c-1.44,2.73-2.77,5.34-4,7.8A41.84,41.84,0,0,0,17.09,65.51Z"></path> <path class="cls-2" d="M42.59,58.51c.37,0,3.38.29,8.1,3.33a24.78,24.78,0,0,0,6.51-3.68c-8-6.09-13.55-6.41-14.63-6.41H41.44c-1.09,0-6.64.32-14.6,6.37a27.45,27.45,0,0,0,6.36,3.79C38,58.8,41,58.53,41.41,58.51c0,0,0,0,.05,0h1.07C42.6,58.5,42.58,58.51,42.59,58.51Z"></path> <path class="cls-2" d="M83.73,72.33C76,54.1,56.48,22.65,46,6.24L42,0,38,6.24c-5.47,8.57-13.41,21.24-20.84,34a28.9,28.9,0,0,0,2.51,9.18C27.18,36.23,35.79,22.33,42,12.54,51.46,27.45,66.51,51.9,74.72,68.85a41.23,41.23,0,0,1-7.78-3.32,36,36,0,0,1-5.78,4.4A48.11,48.11,0,0,0,80.26,77a2.23,2.23,0,0,0,.37,0,3.38,3.38,0,0,0,3.1-4.7Z"></path> <path class="cls-1" d="M92.05,39.52c0-9.36,6.71-14.05,13-14.05,4.84,0,8,2.66,8.63,4.16h.16V26h7V53h-7V49.4h-.16c-.67,1.5-3.79,4.16-8.63,4.16C98.76,53.56,92.05,48.88,92.05,39.52Zm21.94,0c0-5.1-3.64-7.8-7.54-7.8a7.38,7.38,0,0,0-7.54,7.8,7.54,7.54,0,1,0,15.08,0Z"></path> <path class="cls-1" d="M143.37,25.68v6.66a10.47,10.47,0,0,0-1.76-.16c-5.26,0-8.53,3.64-8.53,9V53h-7V26h7v7c.93-4.16,3.59-7.55,8.47-7.55A7.48,7.48,0,0,1,143.37,25.68Z"></path> <path class="cls-1" d="M147.32,16.11h7v6.14h-7Zm0,9.89h7V53h-7Z"></path> <path class="cls-1" d="M185.08,26V53h-7v-3.7a9.37,9.37,0,0,1-8.32,4.22c-5.51,0-10.19-3.44-10.19-11.65V26h7V40.76c0,4,2.14,6.56,5.78,6.56s5.77-2.6,5.77-6.56V26Z"></path> <path class="cls-1" d="M188.82,46l5.56-1.5A4.53,4.53,0,0,0,198.86,48c1.76,0,3.48-.88,3.48-2.8,0-1.3-.83-2.24-3-3L196.05,41c-4.47-1.61-6.35-4.47-6.35-7.75,0-4.83,4.27-7.75,9.36-7.75,4.89,0,8.48,2.76,9.37,6.92L203,33.8c-.72-2.19-2.13-2.86-3.58-2.86-1.82,0-2.92,1-2.92,2.34,0,1.14.68,2.13,2.81,2.86l3,1.14c3.33,1.2,7,3.17,7,8,0,5.4-4.63,8.32-10.3,8.32C193.6,53.56,189.65,51,188.82,46Z"></path> <path class="cls-1" d="M226,39.52c0-9.16,7.13-14.05,14.25-14.05a13.12,13.12,0,0,1,11.65,6.66l-5.1,3.28a7.74,7.74,0,0,0-6.5-3.64,7.38,7.38,0,0,0-7.43,7.75,7.37,7.37,0,0,0,7.43,7.74,7.71,7.71,0,0,0,6.5-3.64l5.1,3.28a13.22,13.22,0,0,1-11.65,6.66C233.15,53.56,226,48.67,226,39.52Z"></path> <path class="cls-1" d="M254,39.52c0-9.36,6.71-14.05,13-14.05,4.83,0,7.95,2.66,8.63,4.16h.16V26h7V53h-7V49.4h-.16c-.68,1.5-3.8,4.16-8.63,4.16C260.71,53.56,254,48.88,254,39.52Zm21.94,0c0-5.1-3.64-7.8-7.54-7.8a7.38,7.38,0,0,0-7.54,7.8,7.54,7.54,0,1,0,15.08,0Z"></path> <path class="cls-1" d="M316.81,39.52c0,9.36-6.7,14-13,14-4.83,0-7.95-2.66-8.63-4.16H295V62.92h-7V26h7v3.63h.16c.68-1.5,3.8-4.16,8.63-4.16C310.11,25.47,316.81,30.16,316.81,39.52Zm-6.91,0a7.37,7.37,0,0,0-7.49-7.8c-4,0-7.54,2.7-7.54,7.8s3.59,7.8,7.54,7.8A7.38,7.38,0,0,0,309.9,39.52Z"></path> <path class="cls-1" d="M320.82,16.11h7v6.14h-7Zm0,9.89h7V53h-7Z"></path> <path class="cls-1" d="M348.27,46.74V52.1c-1,.94-3,1.25-4.73,1.25-4.58,0-7.9-2.24-7.9-7.8v-14h-3.85V26h3.85V19.08h7V26h5.56v5.56h-5.56V44.4c0,1.41.78,2.76,3.06,2.76A8.58,8.58,0,0,0,348.27,46.74Z"></path> <path class="cls-1" d="M350.92,39.52c0-9.36,6.71-14.05,13-14.05,4.84,0,8,2.66,8.64,4.16h.15V26h7V53h-7V49.4h-.15c-.68,1.5-3.8,4.16-8.64,4.16C357.63,53.56,350.92,48.88,350.92,39.52Zm21.95,0c0-5.1-3.64-7.8-7.54-7.8a7.38,7.38,0,0,0-7.54,7.8,7.54,7.54,0,1,0,15.08,0Z"></path> <path class="cls-1" d="M385,16.11h7V53h-7Z"></path> </g> </g> </svg> 