<?xml version="1.0" encoding="UTF-8"?> <svg xmlns="http://www.w3.org/2000/svg" width="984" height="532" viewBox="0 0 984 532" fill="none"> <path d="M585.675 98.4695L605.689 78.313C585.346 49.5651 554.504 29.0782 519.068 21.8086L542.364 59.1477C559.754 68.3999 574.847 81.9477 585.675 98.4695Z" fill="#1E1E1E"></path> <path d="M583.05 224.696C587.315 232.626 592.237 241.878 597.486 251.131C571.894 280.87 534.161 300.035 492.163 300.035C415.386 300.035 353.045 237.252 353.045 159.931C353.045 91.861 401.605 35.0262 465.586 22.4697L441.963 59.4784C405.542 77.9828 380.606 115.983 380.606 159.931C380.606 221.722 430.807 272.278 492.163 272.278C529.568 272.278 563.035 253.444 583.05 224.696Z" fill="#1E1E1E"></path> <path d="M390.122 269.965C397.669 276.904 405.215 282.852 413.418 288.139C376.341 312.591 337.296 316.887 335.328 317.217C330.406 317.878 325.813 315.565 322.86 311.6C319.907 307.635 319.25 302.348 321.219 297.722C330.078 276.574 342.546 251.461 357.311 224.365C361.577 233.287 367.154 242.209 374.373 251.13C368.467 262.365 362.889 273.27 358.295 283.183C367.482 280.87 378.638 276.243 390.122 269.965Z" fill="white"></path> <path d="M494.462 241.217C496.102 241.217 508.242 242.539 527.601 255.096C537.116 251.461 546.303 246.174 554.178 239.896C521.695 214.783 498.727 213.461 494.134 213.461H489.54C484.947 213.461 462.307 214.783 429.824 239.565C438.355 246.174 446.886 251.461 455.745 255.096C475.431 242.209 487.9 241.217 489.212 241.217C489.212 241.217 489.212 241.217 489.54 241.217H494.462Z" fill="white"></path> <path d="M662.782 298.052C631.283 223.043 551.225 93.1826 508.571 25.7739L492.165 0L475.76 25.7739C453.448 61.1304 420.965 113.339 390.451 165.878C391.436 176.783 394.388 190 400.623 203.878C431.465 149.687 466.573 92.1913 492.165 51.8783C530.882 113.339 592.567 214.122 626.034 283.843C616.519 280.87 605.363 276.574 594.207 270.296C586.989 277.235 579.114 283.183 570.583 288.47C607.66 312.922 646.705 317.548 648.673 317.548C649.329 317.548 649.658 317.548 650.314 317.548C654.579 317.548 658.845 315.565 661.47 311.93C664.094 307.965 664.751 302.678 662.782 298.052Z" fill="white"></path> <path d="M0 454.678C0 423.617 21.9833 408.417 42.6542 408.417C58.4035 408.417 68.903 417.339 70.8716 422.295H71.5278V410.4H94.4955V499.617H71.5278V487.721H70.8716C68.5749 492.678 58.4035 501.6 42.6542 501.6C21.9833 501.269 0 485.739 0 454.678ZM71.856 454.678C71.856 437.826 60.044 428.904 47.2477 428.904C34.4515 428.904 22.6395 438.156 22.6395 454.678C22.6395 471.2 34.4515 480.452 47.2477 480.452C60.044 480.452 71.856 471.53 71.856 454.678Z" fill="#1E1E1E"></path> <path d="M168.32 409.078V431.217C166.351 430.887 164.71 430.556 162.414 430.556C145.024 430.556 134.524 442.452 134.524 460.295V499.287H111.557V410.069H134.524V433.2C137.477 419.321 146.336 408.417 162.414 408.417C164.382 408.417 166.351 408.417 168.32 409.078Z" fill="#1E1E1E"></path> <path d="M181.445 377.356H204.413V397.513H181.445V377.356ZM181.445 410.069H204.413V499.287H181.445V410.069Z" fill="#1E1E1E"></path> <path d="M305.143 410.069V499.287H282.175V487.061C277.253 494.991 268.066 500.939 254.942 500.939C236.896 500.939 221.475 489.704 221.475 462.608V410.069H244.442V458.974C244.442 472.191 251.333 480.782 263.473 480.782C274.956 480.782 282.503 472.191 282.503 458.974V410.069H305.143Z" fill="#1E1E1E"></path> <path d="M317.609 476.156L335.983 471.2C337.624 477.148 341.889 483.096 350.748 483.096C356.654 483.096 362.232 480.122 362.232 473.843C362.232 469.548 359.607 466.574 352.389 463.93L341.561 459.965C326.796 454.678 320.89 445.096 320.89 434.522C320.89 418.661 334.999 409.078 351.733 409.078C367.81 409.078 379.622 418.33 382.575 431.878L364.529 436.504C362.232 429.235 357.639 426.922 352.717 426.922C346.811 426.922 343.202 430.226 343.202 434.522C343.202 438.156 345.499 441.461 352.389 444.104L362.232 447.739C373.06 451.704 385.2 458.313 385.2 474.174C385.2 492.017 370.107 501.6 351.405 501.6C333.359 501.269 320.234 492.678 317.609 476.156Z" fill="#1E1E1E"></path> <path d="M439.666 454.678C439.666 424.278 462.962 408.417 486.258 408.417C502.007 408.417 515.787 415.687 524.318 430.556L507.585 441.461C502.991 434.521 495.445 429.565 486.258 429.565C473.461 429.565 461.977 439.147 461.977 455.008C461.977 470.869 473.461 480.452 486.258 480.452C495.445 480.452 502.991 475.495 507.585 468.556L524.318 479.461C515.787 494 501.679 501.6 486.258 501.6C462.962 501.269 439.666 485.078 439.666 454.678Z" fill="#1E1E1E"></path> <path d="M531.209 454.678C531.209 423.617 553.192 408.417 573.863 408.417C589.612 408.417 600.112 417.339 602.081 422.295H602.737V410.4H625.705V499.617H602.737V487.721H602.081C599.784 492.678 589.612 501.6 573.863 501.6C553.52 501.269 531.209 485.739 531.209 454.678ZM603.393 454.678C603.393 437.826 591.581 428.904 578.785 428.904C565.989 428.904 554.177 438.156 554.177 454.678C554.177 471.2 565.989 480.452 578.785 480.452C591.581 480.452 603.393 471.53 603.393 454.678Z" fill="#1E1E1E"></path> <path d="M737.589 454.678C737.589 485.739 715.606 500.939 694.935 500.939C679.186 500.939 668.686 492.017 666.718 487.061H666.061V532H643.094V410.07H666.061V421.965H666.718C669.014 417.009 679.186 408.087 694.935 408.087C715.606 408.417 737.589 423.948 737.589 454.678ZM714.622 454.678C714.622 438.157 702.81 428.904 690.013 428.904C676.889 428.904 665.405 437.826 665.405 454.678C665.405 471.53 677.217 480.452 690.013 480.452C702.81 480.452 714.622 471.53 714.622 454.678Z" fill="#1E1E1E"></path> <path d="M750.715 377.356H773.682V397.513H750.715V377.356ZM750.715 410.069H773.682V499.287H750.715V410.069Z" fill="#1E1E1E"></path> <path d="M840.617 478.47V496.313C837.335 499.287 830.773 500.279 825.195 500.279C810.102 500.279 799.275 493.009 799.275 474.505V428.244H786.807V409.739H799.275V386.939H822.242V409.739H840.617V428.244H822.242V470.539C822.242 475.165 824.867 479.792 832.414 479.792C834.382 480.122 837.335 479.792 840.617 478.47Z" fill="#1E1E1E"></path> <path d="M849.475 454.678C849.475 423.617 871.458 408.417 892.129 408.417C907.878 408.417 918.378 417.339 920.346 422.295H921.003V410.4H943.97V499.617H921.003V487.721H920.346C918.049 492.678 907.878 501.6 892.129 501.6C871.458 501.269 849.475 485.739 849.475 454.678ZM921.331 454.678C921.331 437.826 909.519 428.904 896.722 428.904C883.926 428.904 872.114 438.156 872.114 454.678C872.114 471.2 883.926 480.452 896.722 480.452C909.519 480.452 921.331 471.53 921.331 454.678Z" fill="#1E1E1E"></path> <path d="M961.033 377.356H984.001V499.287H961.033V377.356Z" fill="#1E1E1E"></path> </svg> 