<?xml version="1.0" encoding="UTF-8"?> <svg xmlns="http://www.w3.org/2000/svg" width="880" height="176" viewBox="0 0 880 176" fill="none"> <g clip-path="url(#clip0)"> <path d="M145.693 54.6285L156.693 43.4285C145.468 27.4285 128.632 16 109.101 12.1143L121.897 32.6857C131.55 37.9428 139.632 45.4857 145.693 54.6285Z" fill="white"></path> <path d="M144.347 124.571C146.592 128.914 149.51 134.171 152.204 139.2C138.061 155.886 117.408 166.4 94.2855 166.4C52.0814 166.4 17.959 131.428 17.959 88.6856C17.959 50.7428 44.4488 19.1999 79.6937 12.3428L66.8978 32.9142C46.9182 43.1999 33.2243 64.2285 33.2243 88.6856C32.9998 122.971 60.612 150.857 94.2855 150.857C114.939 150.857 133.122 140.571 144.347 124.571Z" fill="white"></path> <path d="M38.3875 149.714C42.4283 153.6 46.6936 157.028 51.1834 159.771C30.7548 173.486 9.4283 176 8.30585 176C5.61197 176.228 2.91809 175.085 1.34667 173.028C-0.224762 170.743 -0.673742 168 0.448707 165.486C5.38748 153.828 12.1222 139.886 20.2038 124.8C22.4487 129.6 25.5916 134.628 29.6324 139.657C26.4895 145.828 23.3467 151.771 20.6528 157.486C26.0405 155.657 32.1018 153.143 38.3875 149.714Z" fill="#C7DD00"></path> <path d="M95.6311 133.714C96.5291 133.714 103.264 134.399 113.815 141.257C118.978 139.199 123.917 136.457 128.407 132.799C110.447 118.857 98.1005 118.171 95.6311 118.171H93.1617C90.6923 118.171 78.3454 118.857 60.3862 132.799C65.1005 136.457 69.8148 139.428 74.7536 141.485C85.5291 134.399 92.2638 133.714 93.1617 133.714C93.1617 133.714 93.1617 133.714 93.3862 133.714H95.6311Z" fill="#C7DD00"></path> <path d="M187.898 165.257C170.612 123.657 126.836 51.6571 103.265 14.1714L94.2853 0L85.3057 14.1714C72.9588 33.8286 55.2241 62.6286 38.6118 91.8857C39.2853 97.8286 40.8567 105.143 44.2241 112.914C61.0608 82.7429 80.3669 50.9714 94.2853 28.5714C115.612 62.6286 149.285 118.629 167.693 157.257C162.53 155.657 156.469 153.143 150.183 149.714C146.142 153.6 141.877 156.8 137.163 159.771C157.591 173.257 178.918 175.771 180.04 176C180.265 176 180.489 176 180.938 176C183.408 176 185.653 174.857 187 172.8C188.571 170.743 189.02 167.771 187.898 165.257Z" fill="#C7DD00"></path> <path d="M206.531 90.2861C206.531 68.8004 221.572 58.2861 235.714 58.2861C246.49 58.2861 253.674 64.4576 255.021 67.8861H255.47V59.429H271.184V121.143H255.47V112.915H255.021C253.449 116.343 246.49 122.515 235.714 122.515C221.796 122.515 206.531 111.772 206.531 90.2861ZM255.918 90.2861C255.918 78.629 247.837 72.4576 239.082 72.4576C230.327 72.4576 222.245 78.8576 222.245 90.2861C222.245 101.715 230.327 108.115 239.082 108.115C247.837 108.115 255.918 101.943 255.918 90.2861Z" fill="white"></path> <path d="M321.918 58.7433V74.0576C320.571 73.829 319.449 73.6004 317.878 73.6004C305.98 73.6004 298.796 81.829 298.796 94.1718V121.143H283.082V59.429H298.796V75.429C300.816 65.829 306.878 58.2861 317.878 58.2861C319.224 58.2861 320.571 58.2861 321.918 58.7433Z" fill="white"></path> <path d="M330.675 36.7998H346.389V50.7427H330.675V36.7998ZM330.675 59.4284H346.389V121.143H330.675V59.4284Z" fill="white"></path> <path d="M415.531 59.4297V121.144H399.817V112.687C396.449 118.173 390.164 122.287 381.184 122.287C368.837 122.287 358.286 114.515 358.286 95.7725V59.4297H374V93.2583C374 102.401 378.715 108.344 387.021 108.344C394.878 108.344 400.041 102.401 400.041 93.2583V59.4297H415.531Z" fill="white"></path> <path d="M423.838 105.142L436.409 101.714C437.532 105.828 440.45 109.942 446.511 109.942C450.552 109.942 454.368 107.885 454.368 103.542C454.368 100.571 452.573 98.5137 447.634 96.6851L440.001 93.7137C429.899 90.0565 425.858 83.428 425.858 76.1137C425.858 65.1422 435.511 58.5137 446.96 58.5137C457.96 58.5137 466.042 64.9137 468.062 74.2851L455.715 77.4851C454.144 72.4565 451.001 70.8565 447.634 70.8565C443.593 70.8565 441.124 73.1422 441.124 76.1137C441.124 78.628 442.695 80.9137 447.409 82.7422L454.144 85.2565C461.552 87.9994 469.858 92.5708 469.858 103.542C469.858 115.885 459.532 122.514 446.736 122.514C434.613 122.514 425.858 116.571 423.838 105.142Z" fill="white"></path> <path d="M507.347 90.2861C507.347 69.2576 523.286 58.2861 539.225 58.2861C550 58.2861 559.429 63.3147 565.266 73.6004L553.817 81.1433C550.674 76.3433 545.511 72.9147 539.225 72.9147C530.47 72.9147 522.613 79.5433 522.613 90.5147C522.613 101.486 530.47 108.115 539.225 108.115C545.511 108.115 550.674 104.686 553.817 99.8861L565.266 107.429C559.429 117.486 549.776 122.743 539.225 122.743C523.286 122.515 507.347 111.315 507.347 90.2861Z" fill="white"></path> <path d="M570.205 90.2861C570.205 68.8004 585.245 58.2861 599.388 58.2861C610.164 58.2861 617.347 64.4576 618.694 67.8861H619.143V59.429H634.858V121.143H619.143V112.915H618.694C617.123 116.343 610.164 122.515 599.388 122.515C585.245 122.515 570.205 111.772 570.205 90.2861ZM619.368 90.2861C619.368 78.629 611.286 72.4576 602.531 72.4576C593.776 72.4576 585.694 78.8576 585.694 90.2861C585.694 101.715 593.776 108.115 602.531 108.115C611.286 108.115 619.368 101.943 619.368 90.2861Z" fill="white"></path> <path d="M711.184 90.2862C711.184 111.772 696.143 122.286 682 122.286C671.225 122.286 664.041 116.115 662.694 112.686H662.245V143.543H646.531V59.429H662.245V67.6576H662.694C664.265 64.229 671.225 58.0576 682 58.0576C696.143 58.2862 711.184 69.029 711.184 90.2862ZM695.694 90.2862C695.694 78.8576 687.612 72.4576 678.857 72.4576C669.878 72.4576 662.021 78.629 662.021 90.2862C662.021 101.943 670.102 108.115 678.857 108.115C687.612 108.115 695.694 101.943 695.694 90.2862Z" fill="white"></path> <path d="M720.164 36.7998H735.878V50.7427H720.164V36.7998ZM720.164 59.4284H735.878V121.143H720.164V59.4284Z" fill="white"></path> <path d="M781.898 106.742V119.085C779.653 121.142 775.164 121.828 771.347 121.828C761.021 121.828 753.613 116.799 753.613 103.999V71.9991H745.082V59.4277H753.613V43.6562H769.327V59.4277H781.898V72.2277H769.327V101.485C769.327 104.685 771.123 107.885 776.286 107.885C777.409 107.885 779.653 107.656 781.898 106.742Z" fill="white"></path> <path d="M787.735 90.2861C787.735 68.8004 802.776 58.2861 816.919 58.2861C827.695 58.2861 834.878 64.4576 836.225 67.8861H836.674V59.429H852.389V121.143H836.674V112.915H836.225C834.654 116.343 827.695 122.515 816.919 122.515C802.776 122.515 787.735 111.772 787.735 90.2861ZM837.123 90.2861C837.123 78.629 829.042 72.4576 820.286 72.4576C811.531 72.4576 803.45 78.8576 803.45 90.2861C803.45 101.715 811.531 108.115 820.286 108.115C828.817 108.115 837.123 101.943 837.123 90.2861Z" fill="white"></path> <path d="M864.286 36.7998H880V121.143H864.286V36.7998Z" fill="white"></path> </g> <defs> <clipPath id="clip0"> <rect width="220" height="44" fill="white" transform="scale(4)"></rect> </clipPath> </defs> </svg> 