<?xml version="1.0" encoding="UTF-8"?> <svg xmlns="http://www.w3.org/2000/svg" width="1000" height="180" viewBox="0 0 1000 180" fill="none"> <rect width="1000" height="180" fill="#C7DD00"></rect> <g clip-path="url(#clip0)"> <path d="M346.79 72.9475L352.457 67.2692C346.56 58.9736 337.707 53.2535 327.72 51.2858L334.404 61.8012C339.438 64.3675 343.709 68.2113 346.79 72.9475V72.9475Z" fill="#1E1E1E"></path> <path d="M346.101 108.653C347.269 110.92 348.765 113.549 350.191 116.189C346.058 120.989 340.837 124.73 334.965 127.103C329.092 129.475 322.737 130.409 316.43 129.827C310.122 129.244 304.046 127.163 298.707 123.755C293.368 120.348 288.921 115.713 285.737 110.238C282.553 104.763 280.725 98.6065 280.404 92.2814C280.083 85.9563 281.28 79.6462 283.894 73.8774C286.507 68.1086 290.463 63.0482 295.43 59.1183C300.397 55.1884 306.232 52.5029 312.447 51.2858L305.775 61.8012C301.454 63.9775 297.686 67.1092 294.756 70.9589C291.826 74.8086 289.812 79.2749 288.866 84.0191C287.92 88.7633 288.068 93.6605 289.297 98.3393C290.526 103.018 292.805 107.355 295.961 111.022C299.117 114.689 303.067 117.588 307.511 119.501C311.955 121.414 316.776 122.289 321.609 122.061C326.441 121.832 331.159 120.506 335.402 118.183C339.646 115.86 343.305 112.601 346.101 108.653V108.653Z" fill="#1E1E1E"></path> <path d="M290.97 121.54C293.041 123.48 295.277 125.236 297.654 126.786C290.895 131.063 283.303 133.851 275.382 134.965C274.699 135.039 274.008 134.933 273.378 134.659C272.748 134.384 272.2 133.95 271.79 133.398C271.379 132.847 271.119 132.199 271.036 131.516C270.953 130.834 271.049 130.142 271.316 129.509C273.84 123.562 277.439 116.399 281.587 108.747C282.907 111.445 284.551 113.971 286.483 116.271C284.8 119.461 283.246 122.51 281.809 125.384C284.985 124.417 288.055 123.129 290.97 121.54V121.54Z" fill="white"></path> <path d="M320.767 113.362C321.2 113.362 324.717 113.701 330.232 117.252C332.971 116.212 335.536 114.763 337.839 112.953C328.491 105.837 322.006 105.464 320.744 105.464H319.423C318.15 105.464 311.664 105.837 302.363 112.906C304.629 114.711 307.129 116.2 309.795 117.334C315.404 113.701 318.909 113.385 319.388 113.362C319.388 113.362 319.388 113.362 319.447 113.362H320.697C320.779 113.35 320.756 113.362 320.767 113.362Z" fill="white"></path> <path d="M368.84 129.509C359.808 108.209 336.998 71.4637 324.752 52.2907L320.078 45L315.404 52.2907C309.012 62.3036 299.734 77.107 291.052 92.0155C291.43 95.7282 292.421 99.3525 293.985 102.741C302.761 87.3303 312.821 71.0898 320.078 59.6514C331.132 77.0719 348.718 105.639 358.312 125.443C355.156 124.465 352.11 123.165 349.221 121.564C347.149 123.501 344.886 125.223 342.467 126.705C349.231 131.019 356.842 133.836 364.785 134.965C364.929 134.977 365.074 134.977 365.218 134.965C365.869 134.963 366.51 134.8 367.082 134.49C367.655 134.18 368.143 133.734 368.501 133.19C368.86 132.647 369.078 132.023 369.137 131.374C369.197 130.726 369.094 130.073 368.84 129.474V129.509Z" fill="white"></path> <path d="M378.562 91.1742C378.562 80.2382 386.403 74.7585 393.753 74.7585C399.408 74.7585 403.101 77.8664 403.837 79.619H404.024V75.3778H412.204V106.924H404.024V102.718H403.837C403.054 104.47 399.408 107.578 393.753 107.578C386.403 107.578 378.562 102.11 378.562 91.1742ZM404.199 91.1742C404.199 85.2155 399.946 82.0609 395.389 82.0609C394.198 82.0331 393.015 82.2522 391.913 82.7044C390.811 83.1566 389.815 83.8321 388.987 84.6883C388.16 85.5444 387.518 86.5627 387.104 87.679C386.689 88.7953 386.51 89.9854 386.578 91.1742C386.578 93.5107 387.506 95.7514 389.159 97.4035C390.811 99.0556 393.052 99.9838 395.389 99.9838C397.725 99.9838 399.966 99.0556 401.619 97.4035C403.271 95.7514 404.199 93.5107 404.199 91.1742V91.1742Z" fill="#1E1E1E"></path> <path d="M438.53 75.0039V82.7853C437.851 82.6651 437.163 82.6026 436.474 82.5983C430.327 82.5983 426.506 86.8512 426.506 93.1137V106.924H418.326V75.3778H426.506V83.5564C427.593 78.696 430.701 74.7352 436.403 74.7352C437.121 74.7372 437.835 74.8274 438.53 75.0039V75.0039Z" fill="#1E1E1E"></path> <path d="M443.146 63.8226H451.326V70.9964H443.146V63.8226ZM443.146 75.3778H451.326V106.924H443.146V75.3778Z" fill="#1E1E1E"></path> <path d="M487.269 75.3778V106.924H479.09V102.601C478.041 104.2 476.592 105.497 474.886 106.362C473.18 107.227 471.278 107.63 469.367 107.532C462.929 107.532 457.46 103.512 457.46 93.9199V75.3778H465.64V92.623C465.64 97.2965 468.141 100.288 472.394 100.288C476.647 100.288 479.136 97.2498 479.136 92.623V75.3778H487.269Z" fill="#1E1E1E"></path> <path d="M491.639 98.7453L498.136 96.9927C498.411 98.1695 499.08 99.2168 500.032 99.9607C500.985 100.705 502.163 101.1 503.371 101.082C505.428 101.082 507.438 100.054 507.438 97.8106C507.438 96.2917 506.468 95.1934 503.932 94.3055L500.088 92.9034C494.865 91.0223 492.668 87.6808 492.668 83.8485C492.668 78.2052 497.657 74.7936 503.605 74.7936C509.319 74.7936 513.514 78.0183 514.554 82.8787L508.209 84.4911C507.368 81.9324 505.72 81.1495 504.026 81.1495C501.899 81.1495 500.614 82.3179 500.614 83.8835C500.614 85.2155 501.408 86.3722 503.897 87.2251L507.403 88.557C511.294 89.9591 515.582 92.2608 515.582 97.9041C515.582 104.213 510.172 107.625 503.547 107.625C497.225 107.578 492.609 104.587 491.639 98.7453Z" fill="#1E1E1E"></path> <path d="M535.085 91.1743C535.085 80.4719 543.416 74.7586 551.736 74.7586C554.496 74.7103 557.217 75.4078 559.613 76.7773C562.009 78.1469 563.991 80.1378 565.349 82.54L559.39 86.3722C558.584 85.0817 557.465 84.0154 556.138 83.272C554.81 82.5286 553.316 82.1321 551.794 82.1193C550.62 82.1099 549.456 82.3405 548.373 82.7971C547.291 83.2537 546.313 83.9265 545.5 84.7744C544.687 85.6223 544.056 86.6273 543.645 87.7278C543.235 88.8284 543.053 90.0011 543.112 91.1743C543.053 92.3468 543.235 93.5191 543.646 94.619C544.056 95.7189 544.688 96.7231 545.501 97.5701C546.314 98.4171 547.292 99.0888 548.374 99.5441C549.456 99.9994 550.62 100.229 551.794 100.217C553.317 100.208 554.812 99.8129 556.14 99.0692C557.468 98.3255 558.586 97.2574 559.39 95.9646L565.349 99.7969C563.981 102.191 561.997 104.175 559.603 105.543C557.21 106.911 554.493 107.614 551.736 107.578C543.44 107.578 535.085 101.865 535.085 91.1743Z" fill="#1E1E1E"></path> <path d="M567.803 91.1742C567.803 80.2382 575.644 74.7585 582.994 74.7585C588.638 74.7585 592.284 77.8664 593.078 79.619H593.265V75.3778H601.445V106.924H593.265V102.718H593.078C592.284 104.47 588.638 107.578 582.994 107.578C575.644 107.578 567.803 102.11 567.803 91.1742ZM593.44 91.1742C593.44 85.2155 589.187 82.0609 584.63 82.0609C583.439 82.0331 582.256 82.2522 581.154 82.7044C580.052 83.1566 579.056 83.8321 578.228 84.6883C577.401 85.5444 576.759 86.5627 576.345 87.679C575.93 88.7953 575.751 89.9854 575.819 91.1742C575.819 92.3311 576.047 93.4767 576.49 94.5455C576.933 95.6143 577.582 96.5855 578.4 97.4035C579.218 98.2216 580.189 98.8705 581.258 99.3132C582.327 99.7559 583.473 99.9838 584.63 99.9838C585.787 99.9838 586.932 99.7559 588.001 99.3132C589.07 98.8705 590.042 98.2216 590.86 97.4035C591.678 96.5855 592.327 95.6143 592.77 94.5455C593.213 93.4767 593.44 92.3311 593.44 91.1742V91.1742Z" fill="#1E1E1E"></path> <path d="M641.198 91.1742C641.198 102.11 633.369 107.532 626.007 107.532C620.363 107.532 616.717 104.424 615.923 102.671H615.712V118.514H607.533V75.3778H615.712V79.619H615.899C616.694 77.8664 620.34 74.7585 625.984 74.7585C633.369 74.7585 641.198 80.2382 641.198 91.1742ZM633.123 91.1742C633.193 89.99 633.017 88.8042 632.606 87.6911C632.196 86.5781 631.56 85.5619 630.738 84.7063C629.916 83.8506 628.926 83.1739 627.831 82.7187C626.735 82.2635 625.557 82.0395 624.371 82.0609C619.697 82.0609 615.56 85.2155 615.56 91.1742C615.56 97.133 619.755 100.288 624.371 100.288C625.557 100.307 626.734 100.082 627.829 99.6262C628.923 99.1704 629.912 98.4937 630.734 97.6384C631.555 96.7831 632.191 95.7676 632.602 94.6554C633.014 93.5431 633.191 92.3581 633.123 91.1742V91.1742Z" fill="#1E1E1E"></path> <path d="M645.884 63.8226H654.063V70.9964H645.884V63.8226ZM645.884 75.3778H654.063V106.924H645.884V75.3778Z" fill="#1E1E1E"></path> <path d="M677.959 99.6099V105.872C676.791 106.971 674.454 107.333 672.432 107.333C667.08 107.333 663.201 104.716 663.201 98.2195V81.8623H658.702V75.3778H663.201V67.2926H671.38V75.3778H677.877V81.8739H671.38V96.8759C671.38 98.5233 672.292 100.101 674.956 100.101C675.976 100.091 676.989 99.9253 677.959 99.6099V99.6099Z" fill="#1E1E1E"></path> <path d="M681.056 91.1742C681.056 80.2382 688.897 74.7585 696.247 74.7585C701.902 74.7585 705.595 77.8664 706.342 79.619H706.518V75.3778H714.697V106.924H706.518V102.718H706.342C705.548 104.47 701.902 107.578 696.247 107.578C688.897 107.578 681.056 102.11 681.056 91.1742ZM706.705 91.1742C706.705 85.2155 702.451 82.0609 697.894 82.0609C696.703 82.0331 695.52 82.2522 694.418 82.7044C693.317 83.1566 692.32 83.8321 691.493 84.6883C690.665 85.5444 690.024 86.5627 689.609 87.679C689.194 88.7953 689.015 89.9854 689.083 91.1742C689.083 92.3311 689.311 93.4767 689.754 94.5455C690.197 95.6143 690.846 96.5855 691.664 97.4035C692.482 98.2216 693.453 98.8705 694.522 99.3132C695.591 99.7559 696.737 99.9838 697.894 99.9838C699.051 99.9838 700.197 99.7559 701.266 99.3132C702.335 98.8705 703.306 98.2216 704.124 97.4035C704.942 96.5855 705.591 95.6143 706.034 94.5455C706.477 93.4767 706.705 92.3311 706.705 91.1742V91.1742Z" fill="#1E1E1E"></path> <path d="M720.879 63.8226H729.058V106.924H720.879V63.8226Z" fill="#1E1E1E"></path> </g> <defs> <clipPath id="clip0"> <rect width="458" height="90" fill="white" transform="translate(271 45)"></rect> </clipPath> </defs> </svg> 