<?xml version="1.0" encoding="UTF-8"?> <svg xmlns="http://www.w3.org/2000/svg" width="60" height="60" viewBox="0 0 60 60" fill="none"> <path d="M41.2477 0H18.7523C8.39832 0 0 8.39832 0 18.7523V41.2477C0 51.6017 8.39832 60 18.7523 60H41.2477C51.6017 60 60 51.6017 60 41.2477V18.7523C59.988 8.39832 51.5897 0 41.2477 0ZM29.982 47.6305C26.8866 47.6305 23.9832 46.8386 21.4637 45.4349L11.7097 48.5663L14.889 39.1122C13.2814 36.4607 12.3575 33.3413 12.3575 30.006C12.3575 20.2759 20.2519 12.3815 29.982 12.3815C39.712 12.3815 47.6065 20.2759 47.6065 30.006C47.6185 39.7361 39.724 47.6305 29.982 47.6305ZM29.982 15.177C21.8116 15.177 15.165 21.8236 15.165 29.994C15.165 33.2334 16.2087 36.2448 17.9844 38.6803L16.1368 44.1872L21.8356 42.3635C24.1752 43.9112 26.9826 44.811 29.994 44.811C38.1644 44.811 44.811 38.1644 44.811 29.994C44.811 21.8236 38.1643 15.177 29.982 15.177ZM38.6323 36.1128C38.2723 37.1206 36.5087 38.0924 35.7168 38.1644C34.925 38.2364 34.925 38.8122 30.5339 37.0846C26.1428 35.3569 23.3713 30.8458 23.1554 30.5579C22.9394 30.2699 21.3917 28.2184 21.3917 26.0948C21.3917 23.9712 22.5075 22.9274 22.9034 22.4955C23.2993 22.0636 23.7672 21.9556 24.0552 21.9556C24.3431 21.9556 24.6311 21.9916 24.883 21.9916C25.135 21.9916 25.4949 21.8476 25.8548 22.7115C26.2148 23.5753 27.0786 25.6989 27.1866 25.9148C27.2945 26.1308 27.3665 26.3827 27.2225 26.6707C27.0786 26.9586 27.0066 27.1386 26.7906 27.3905C26.5747 27.6425 26.3347 27.9544 26.1428 28.1464C25.9268 28.3623 25.6989 28.5903 25.9508 29.0222C26.2028 29.4541 27.0666 30.8698 28.3503 32.0096C30.006 33.4853 31.3977 33.9412 31.8296 34.1572C32.2615 34.3731 32.5135 34.3371 32.7655 34.0492C33.0174 33.7612 33.8452 32.7894 34.1332 32.3575C34.4211 31.9256 34.7091 31.9976 35.105 32.1416C35.5009 32.2855 37.6245 33.3293 38.0564 33.5453C38.4883 33.7612 38.7762 33.8692 38.8842 34.0492C38.9922 34.2412 38.9922 35.105 38.6323 36.1128Z" fill="#343434"></path> </svg> 